<?xml version="1.0" encoding="UTF-8" standalone="no"?>
<!DOCTYPE svg PUBLIC "-//W3C//DTD SVG 1.1//EN" "http://www.w3.org/Graphics/SVG/1.1/DTD/svg11.dtd">
<!-- Created with Vectornator (http://vectornator.io/) -->
<svg height="100%" stroke-miterlimit="10" style="fill-rule:nonzero;clip-rule:evenodd;stroke-linecap:round;stroke-linejoin:round;" version="1.1" viewBox="0 0 478.641 98.0864" width="100%" xml:space="preserve" xmlns="http://www.w3.org/2000/svg" xmlns:vectornator="http://vectornator.io" xmlns:xlink="http://www.w3.org/1999/xlink">
<defs/>
<g id="레이어-1" vectornator:layerName="레이어 1">
<g fill="#000000" opacity="1" stroke="none" vectornator:layerName="Text 1">
<path d="M35.276 25.3341L35.276 72.7077L43.2618 72.7077L43.2618 25.3341L35.276 25.3341ZM40.0133 32.3725L49.5557 32.3725C52.3079 32.3725 54.5187 33.0154 56.188 34.3013C57.8574 35.5871 58.6921 37.4933 58.6921 40.0199C58.6921 42.5465 57.8574 44.464 56.188 45.7724C54.5187 47.0809 52.3079 47.7351 49.5557 47.7351L40.0133 47.7351L40.0133 54.7734L49.5557 54.7734C53.0298 54.7734 56.0301 54.1756 58.5567 52.98C61.0833 51.7844 63.0572 50.0812 64.4784 47.8704C65.8996 45.6596 66.6102 43.0428 66.6102 40.0199C66.6102 36.997 65.8996 34.3915 64.4784 32.2033C63.0572 30.0151 61.0833 28.3232 58.5567 27.1276C56.0301 25.9319 53.0298 25.3341 49.5557 25.3341L40.0133 25.3341L40.0133 32.3725Z"/>
<path d="M75.3405 60.5259L100.381 60.5259L98.8919 53.7583L76.897 53.7583L75.3405 60.5259ZM87.7253 38.7341L95.3051 56.33L95.4404 58.2926L101.87 72.7077L110.938 72.7077L87.7253 22.6947L64.5799 72.7077L73.5809 72.7077L80.1455 57.8865L80.2809 56.127L87.7253 38.7341Z"/>
<path d="M126.166 50.1037L141.19 72.7077L150.867 72.7077L134.76 50.1037L126.166 50.1037ZM116.352 25.3341L116.352 72.7077L124.338 72.7077L124.338 25.3341L116.352 25.3341ZM121.09 32.2371L130.632 32.2371C132.482 32.2371 134.084 32.553 135.437 33.1846C136.791 33.8163 137.851 34.7186 138.618 35.8917C139.385 37.0647 139.769 38.5085 139.769 40.223C139.769 41.8923 139.385 43.3248 138.618 44.5204C137.851 45.716 136.791 46.6184 135.437 47.2275C134.084 47.8366 132.482 48.1411 130.632 48.1411L121.09 48.1411L121.09 54.7734L130.971 54.7734C134.445 54.7734 137.445 54.1643 139.972 52.9462C142.498 51.728 144.472 50.0135 145.893 47.8027C147.314 45.592 148.025 42.9977 148.025 40.0199C148.025 37.0422 147.314 34.4592 145.893 32.271C144.472 30.0828 142.498 28.3796 139.972 27.1614C137.445 25.9432 134.445 25.3341 130.971 25.3341L121.09 25.3341L121.09 32.2371Z"/>
<path d="M156.62 25.3341L156.62 72.7077L164.809 72.7077L164.809 25.3341L156.62 25.3341ZM182.405 25.3341L162.44 47.7351L183.217 72.7077L193.098 72.7077L172.05 47.532L192.083 25.3341L182.405 25.3341Z"/>
<path d="M244.87 25.3341L233.839 45.5694L222.875 25.3341L213.739 25.3341L229.846 52.8108L229.846 72.7077L237.967 72.7077L237.967 52.7431L254.007 25.3341L244.87 25.3341Z"/>
<path d="M259.15 25.3341L259.15 57.1421C259.15 59.7589 259.567 62.0938 260.402 64.1466C261.237 66.1995 262.421 67.9478 263.955 69.3916C265.489 70.8353 267.316 71.9407 269.437 72.7077C271.557 73.4747 273.881 73.8582 276.407 73.8582C278.934 73.8582 281.258 73.4747 283.378 72.7077C285.499 71.9407 287.337 70.8353 288.894 69.3916C290.45 67.9478 291.646 66.1995 292.481 64.1466C293.315 62.0938 293.733 59.7589 293.733 57.1421L293.733 25.3341L285.679 25.3341L285.679 56.8037C285.679 59.6912 284.901 62.0374 283.344 63.8421C281.788 65.6468 279.475 66.5491 276.407 66.5491C273.385 66.5491 271.084 65.6468 269.504 63.8421C267.925 62.0374 267.136 59.6912 267.136 56.8037L267.136 25.3341L259.15 25.3341Z"/>
<path d="M338.467 25.3341L338.467 57.1421L303.884 22.9654L303.884 72.7077L311.735 72.7077L311.735 40.8997L346.317 75.0764L346.317 25.3341L338.467 25.3341Z"/>
<path d="M360.056 50.9835L393.894 50.9835L393.894 43.6068L360.056 43.6068L360.056 50.9835ZM388.683 25.3341L388.683 72.7077L396.669 72.7077L396.669 25.3341L388.683 25.3341ZM356.875 25.3341L356.875 72.7077L364.861 72.7077L364.861 25.3341L356.875 25.3341Z"/>
<path d="M412.911 60.5259L437.951 60.5259L436.462 53.7583L414.468 53.7583L412.911 60.5259ZM425.296 38.7341L432.876 56.33L433.011 58.2926L439.44 72.7077L448.509 72.7077L425.296 22.6947L402.15 72.7077L411.151 72.7077L417.716 57.8865L417.851 56.127L425.296 38.7341Z"/>
</g>
</g>
</svg>
